HIERARCHY
ROOT Hips
{
	OFFSET 0.000000 89.005402 0.000000
	CHANNELS 6 Xposition Yposition Zposition Xrotation Yrotation Zrotation
	JOINT Spine
	{
		OFFSET 0.116900 10.681000 0.373400
		CHANNELS 3 Xrotation Yrotation Zrotation
		JOINT Spine1
		{
			OFFSET 0.000000 13.840401 0.053500
			CHANNELS 3 Xrotation Yrotation Zrotation
			JOINT Spine2
			{
				OFFSET 0.000000 14.712700 -0.366200
				CHANNELS 3 Xrotation Yrotation Zrotation
				JOINT Neck
				{
					OFFSET 0.000000 35.415497 -3.314200
					CHANNELS 3 Xrotation Yrotation Zrotation
					JOINT Head
					{
						OFFSET 0.000000 16.899200 1.218300
						CHANNELS 3 Xrotation Yrotation Zrotation
						JOINT HeadTop_End
						{
							OFFSET 0.000000 22.206207 2.192500
							CHANNELS 3 Xrotation Yrotation Zrotation
							End Site
							{
								OFFSET 0.000000 22.314178 0.000000
							}
						}
					}
				}
				JOINT LeftShoulder
				{
					OFFSET 12.896400 26.716293 -4.548400
					CHANNELS 3 Xrotation Yrotation Zrotation
					JOINT LeftArm
					{
						OFFSET 19.027000 -4.857010 -1.718400
						CHANNELS 3 Xrotation Yrotation Zrotation
						JOINT LeftForeArm
						{
							OFFSET 24.179897 0.000000 0.000000
							CHANNELS 3 Xrotation Yrotation Zrotation
							JOINT LeftHand
							{
								OFFSET 27.156403 0.000000 0.000000
								CHANNELS 3 Xrotation Yrotation Zrotation
								JOINT LeftHandIndex1
								{
									OFFSET 16.441200 0.000000 0.000000
									CHANNELS 3 Xrotation Yrotation Zrotation
									JOINT LeftHandIndex2
									{
										OFFSET 4.821899 0.000000 0.000000
										CHANNELS 3 Xrotation Yrotation Zrotation
										JOINT LeftHandIndex3
										{
											OFFSET 6.386497 0.000000 0.000000
											CHANNELS 3 Xrotation Yrotation Zrotation
											JOINT LeftHandIndex4
											{
												OFFSET 5.188988 0.000000 0.000000
												CHANNELS 3 Xrotation Yrotation Zrotation
												End Site
												{
													OFFSET -0.178703 5.185913 0.000177
												}
											}
										}
									}
								}
								JOINT LeftHandThumb1
								{
									OFFSET 6.534897 -5.032593 5.900300
									CHANNELS 3 Xrotation Yrotation Zrotation
									JOINT LeftHandThumb2
									{
										OFFSET 3.818176 -2.204422 2.204423
										CHANNELS 3 Xrotation Yrotation Zrotation
										JOINT LeftHandThumb3
										{
											OFFSET 3.252098 -1.877594 1.877601
											CHANNELS 3 Xrotation Yrotation Zrotation
											JOINT LeftHandThumb4
											{
												OFFSET 5.251778 -3.032120 3.032117
												CHANNELS 3 Xrotation Yrotation Zrotation
												End Site
												{
													OFFSET 0.000023 6.780014 0.000000
												}
											}
										}
									}
								}
							}
						}
					}
				}
				JOINT RightShoulder
				{
					OFFSET -12.896300 26.716293 -4.548400
					CHANNELS 3 Xrotation Yrotation Zrotation
					JOINT RightArm
					{
						OFFSET -19.027000 -4.857010 -1.718400
						CHANNELS 3 Xrotation Yrotation Zrotation
						JOINT RightForeArm
						{
							OFFSET -24.179897 0.000000 0.000000
							CHANNELS 3 Xrotation Yrotation Zrotation
							JOINT RightHand
							{
								OFFSET -27.156403 0.000000 0.000000
								CHANNELS 3 Xrotation Yrotation Zrotation
								JOINT RightHandThumb1
								{
									OFFSET -6.591202 -4.852203 5.988100
									CHANNELS 3 Xrotation Yrotation Zrotation
									JOINT RightHandThumb2
									{
										OFFSET -3.818176 -2.204422 2.204423
										CHANNELS 3 Xrotation Yrotation Zrotation
										JOINT RightHandThumb3
										{
											OFFSET -3.252098 -1.877594 1.877601
											CHANNELS 3 Xrotation Yrotation Zrotation
											JOINT RightHandThumb4
											{
												OFFSET -5.251778 -3.032120 3.032117
												CHANNELS 3 Xrotation Yrotation Zrotation
												End Site
												{
													OFFSET -0.000023 6.780014 0.000000
												}
											}
										}
									}
								}
								JOINT RightHandIndex1
								{
									OFFSET -16.029404 0.000000 0.000000
									CHANNELS 3 Xrotation Yrotation Zrotation
									JOINT RightHandIndex2
									{
										OFFSET -5.213303 0.000000 0.000000
										CHANNELS 3 Xrotation Yrotation Zrotation
										JOINT RightHandIndex3
										{
											OFFSET -6.386528 0.000000 0.000000
											CHANNELS 3 Xrotation Yrotation Zrotation
											JOINT RightHandIndex4
											{
												OFFSET -5.189026 0.000000 0.000000
												CHANNELS 3 Xrotation Yrotation Zrotation
												End Site
												{
													OFFSET 0.236702 5.183624 0.001972
												}
											}
										}
									}
								}
							}
						}
					}
				}
			}
		}
	}
	JOINT LeftUpLeg
	{
		OFFSET 14.073000 -7.904099 -1.463000
		CHANNELS 3 Xrotation Yrotation Zrotation
		JOINT LeftLeg
		{
			OFFSET -0.109806 -34.073280 4.093200
			CHANNELS 3 Xrotation Yrotation Zrotation
			JOINT LeftFoot
			{
				OFFSET 0.109806 -29.899420 -6.319000
				CHANNELS 3 Xrotation Yrotation Zrotation
				JOINT LeftToeBase
				{
					OFFSET 1.551100 -14.988700 20.535801
					CHANNELS 3 Xrotation Yrotation Zrotation
					JOINT LeftToe_End
					{
						OFFSET 0.221200 0.570800 13.248301
						CHANNELS 3 Xrotation Yrotation Zrotation
						End Site
						{
							OFFSET 0.000000 13.262435 0.000000
						}
					}
				}
			}
		}
	}
	JOINT RightUpLeg
	{
		OFFSET -13.839300 -7.904099 -1.463000
		CHANNELS 3 Xrotation Yrotation Zrotation
		JOINT RightLeg
		{
			OFFSET 0.109694 -34.073219 4.093300
			CHANNELS 3 Xrotation Yrotation Zrotation
			JOINT RightFoot
			{
				OFFSET -0.109694 -29.899384 -6.319200
				CHANNELS 3 Xrotation Yrotation Zrotation
				JOINT RightToeBase
				{
					OFFSET -1.551100 -14.988700 20.535801
					CHANNELS 3 Xrotation Yrotation Zrotation
					JOINT RightToe_End
					{
						OFFSET -0.221200 0.570900 13.248299
						CHANNELS 3 Xrotation Yrotation Zrotation
						End Site
						{
							OFFSET 0.000000 13.262440 0.000000
						}
					}
				}
			}
		}
	}
}
MOTION
Frames: 8
Frame Time: 0.033333
-5.914016 69.668739 10.032131 -0.549921 28.437952 1.176978 3.843524 28.950617 3.242457 5.024973 26.437057 3.853977 4.357114 26.525967 4.095135 -2.950202 -13.016942 8.077952 -22.317322 -58.339917 -2.567529 -0.000000 0.000001 0.000000 -0.115351 4.695806 -2.183100 47.803125 -27.421797 -56.065208 -0.000021 -65.838181 -0.000007 4.528559 9.962277 10.017622 -2.660807 -2.943974 -29.720742 1.684003 4.516193 -40.882258 0.717206 3.064686 -26.336912 -0.000000 -0.000001 -0.000001 10.468185 7.147580 9.921592 -8.969342 17.057576 -9.772692 13.034203 26.908770 2.767800 -0.000000 -0.000001 0.000002 11.286992 32.466700 0.680087 10.390763 42.420044 10.578477 -0.000027 69.898414 0.000000 -99.874147 -10.531452 8.588498 12.368837 -4.624740 21.260484 17.294816 -25.325407 -0.358855 11.165250 -70.172619 -5.514512 -0.000002 -0.000000 -0.000000 5.274449 -6.773188 70.945113 4.981896 -6.665505 73.522615 3.118676 -5.801947 56.488936 0.000001 -0.000001 0.000001 -61.521153 -16.858951 -17.801867 47.481590 -8.885303 -0.254129 8.480475 -4.841286 -7.875670 0.000004 0.000001 -0.000004 -0.000000 -0.000000 -0.000000 20.756462 -32.494126 5.339589 45.411920 -13.338719 -4.230083 -47.911007 -26.281335 11.673736 -12.799223 -0.000009 -0.000010 -0.000001 0.000003 -0.000000 
-6.068379 69.308594 9.811184 0.311535 27.702242 0.891470 4.026955 28.003046 2.845779 5.790568 25.516074 3.663537 5.111956 25.619939 3.945020 -2.625324 -12.735074 7.443832 -22.861557 -57.325518 -3.693879 0.000002 -0.000002 -0.000000 0.096062 3.898055 -2.890348 46.903292 -27.753190 -54.523839 -0.000021 -69.529564 -0.000018 4.114685 10.276760 10.201149 -2.660807 -2.943975 -29.720745 1.683997 4.516193 -40.882254 0.717204 3.064688 -26.336919 0.000000 0.000004 -0.000001 10.468186 7.147579 9.921589 -8.969339 17.057576 -9.772691 13.034203 26.908765 2.767803 -0.000001 0.000001 -0.000000 11.671734 33.126336 0.848768 9.401376 49.407171 11.645860 -0.000001 72.057936 -0.000020 -89.778308 -13.762594 1.779807 12.368834 -4.624740 21.260485 17.294816 -25.325409 -0.358853 11.165248 -70.172619 -5.514507 0.000002 -0.000000 0.000001 5.274441 -6.773188 70.945113 4.981897 -6.665507 73.522615 3.118673 -5.801950 56.488936 0.000002 -0.000000 -0.000002 -62.901002 -17.132507 -17.993485 48.026769 -8.910239 0.247850 8.335320 -3.903201 -8.820748 0.000004 0.000001 -0.000004 0.000000 -0.000000 -0.000000 18.742200 -33.422171 4.008521 47.335205 -13.145280 -4.137655 -48.815960 -25.519416 12.146740 -12.767334 -0.000006 0.000009 0.000000 -0.000003 -0.000000 
-6.246177 69.533875 9.422782 0.468631 24.459971 0.572653 4.535943 26.831193 2.897893 6.594642 24.508054 3.579425 5.981428 24.616200 3.871962 -2.055153 -12.184929 6.500530 -21.838958 -55.351143 -3.705602 0.000000 0.000001 0.000001 0.309877 2.984071 -3.418754 44.646997 -27.946395 -54.542377 -0.000016 -71.671531 -0.000003 0.978684 10.856657 11.851052 -2.660803 -2.943972 -29.720742 1.683998 4.516192 -40.882254 0.717207 3.064689 -26.336919 0.000001 -0.000001 -0.000000 10.468189 7.147582 9.921589 -8.969345 17.057576 -9.772690 13.034200 26.908772 2.767811 -0.000001 -0.000000 -0.000000 11.587564 32.723132 1.616052 7.281906 54.365120 14.663935 -0.000071 72.252043 0.000053 -83.665514 -16.415612 1.312592 12.368837 -4.624739 21.260485 17.294818 -25.325406 -0.358854 11.165240 -70.172619 -5.514510 0.000003 0.000001 0.000001 5.274451 -6.773189 70.945113 4.981896 -6.665501 73.522615 3.118672 -5.801949 56.488936 0.000001 -0.000000 0.000002 -62.369565 -17.883892 -15.963146 48.134676 -8.984207 0.043222 7.733927 -1.996249 -9.667847 0.000004 0.000001 -0.000004 -0.000000 0.000000 0.000000 15.983232 -32.613313 1.778738 49.228855 -13.011734 -4.331719 -48.563652 -24.109448 12.838655 -13.036207 0.000001 -0.000013 0.000000 -0.000001 0.000000 
-6.444929 70.308395 8.994568 0.702460 18.630507 0.070125 5.165655 25.634339 2.762183 7.228284 23.579428 3.077442 6.723046 23.678956 3.364873 -1.067374 -11.400890 6.301764 -20.933543 -51.674264 -3.814356 -0.000000 0.000003 0.000000 0.499461 2.077302 -3.650219 42.502976 -27.941168 -53.974508 0.000114 -73.417430 0.000119 -4.859478 12.759629 14.383082 -2.660805 -2.943973 -29.720738 1.683991 4.516193 -40.882254 0.717206 3.064686 -26.336921 -0.000000 0.000001 0.000000 10.468187 7.147581 9.921593 -8.969340 17.057578 -9.772689 13.034202 26.908761 2.767805 0.000001 -0.000000 -0.000002 11.154166 31.953875 1.475510 5.916842 57.161016 17.754223 -0.000044 73.070122 0.000046 -81.314474 -16.057280 2.751800 12.368836 -4.624741 21.260484 17.294816 -25.325406 -0.358856 11.165244 -70.172626 -5.514511 -0.000001 0.000000 0.000000 5.274446 -6.773190 70.945113 4.981896 -6.665509 73.522622 3.118679 -5.801947 56.488933 -0.000004 -0.000000 -0.000003 -60.138695 -17.725697 -11.472953 47.914026 -9.103153 -0.234466 6.620830 0.217859 -10.189883 0.000004 0.000000 -0.000004 0.000000 -0.000001 0.000000 11.811937 -30.180028 -1.103377 51.052604 -13.041475 -4.802031 -47.225342 -22.243148 13.438409 -13.534289 -0.000013 -0.000007 0.000000 -0.000002 0.000000 
-6.391361 70.969482 8.517879 1.301978 13.108869 -0.254622 5.111588 23.643811 2.912079 7.493526 21.865508 3.057366 7.108030 21.939937 3.339796 0.526055 -10.107354 4.959808 -19.970163 -46.647129 -3.878272 0.000001 0.000001 -0.000000 0.976341 -0.067809 -5.754884 41.930002 -25.822978 -51.969653 0.000066 -76.405638 0.000067 -11.391257 14.505286 17.747987 -2.660803 -2.943976 -29.720745 1.684000 4.516193 -40.882251 0.717206 3.064689 -26.336916 0.000001 0.000001 -0.000001 10.468191 7.147579 9.921592 -8.969340 17.057573 -9.772687 13.034202 26.908766 2.767800 -0.000001 -0.000000 -0.000000 10.646567 31.070459 1.096643 6.791811 57.562560 19.272560 -0.000056 75.102506 0.000059 -77.597861 -14.233079 2.267987 12.368835 -4.624739 21.260482 17.294818 -25.325407 -0.358854 11.165245 -70.172619 -5.514508 -0.000000 -0.000000 -0.000001 5.274449 -6.773190 70.945113 4.981896 -6.665507 73.522615 3.118671 -5.801949 56.488933 -0.000001 -0.000001 -0.000000 -58.433757 -17.030645 -7.666607 47.611951 -7.834428 -0.013654 5.774353 0.980929 -10.766659 0.000004 0.000001 -0.000004 -0.000000 -0.000000 -0.000000 6.884142 -28.708825 -4.961805 53.388980 -12.849790 -4.930903 -45.874860 -19.138306 14.653589 -14.327874 0.000004 0.000006 -0.000000 -0.000002 -0.000001 
-6.247963 71.670151 7.948856 1.242647 7.110084 -0.749540 5.252136 21.306671 3.431760 7.737976 19.849559 3.393558 7.491848 19.888295 3.639864 1.992945 -8.411179 2.546823 -18.466048 -40.474495 -3.371708 0.000000 0.000001 0.000000 1.470434 -2.825397 -8.514208 41.489045 -22.476969 -49.523885 0.000178 -78.867559 0.000192 -14.479502 15.979072 20.209550 -2.660808 -2.943975 -29.720742 1.684000 4.516192 -40.882251 0.717208 3.064689 -26.336919 -0.000000 0.000000 -0.000001 10.468184 7.147580 9.921588 -8.969340 17.057576 -9.772689 13.034199 26.908768 2.767805 0.000001 -0.000001 -0.000001 10.108739 29.672193 1.961320 8.367053 55.106943 20.640859 0.000068 77.515953 -0.000061 -71.286357 -13.203191 -0.003619 12.368834 -4.624740 21.260482 17.294819 -25.325407 -0.358855 11.165245 -70.172626 -5.514512 -0.000000 -0.000000 0.000000 5.274447 -6.773188 70.945113 4.981896 -6.665503 73.522608 3.118671 -5.801949 56.488936 0.000000 -0.000000 0.000001 -56.046476 -16.542928 -3.237289 47.607002 -5.678192 -0.126965 4.690832 1.003991 -11.318814 0.000004 0.000001 -0.000004 -0.000000 0.000000 0.000000 2.343680 -27.052448 -8.526678 55.673364 -12.678412 -5.102768 -44.227978 -15.099875 15.722672 -15.504372 -0.000014 0.000003 -0.000000 0.000001 0.000000 
-6.018064 72.324577 7.336360 1.215285 0.743828 -1.169257 5.561043 19.090867 3.106211 7.547374 17.901426 2.686908 7.396197 17.921923 2.890293 3.293974 -6.902784 2.515828 -16.263338 -33.108246 -2.343215 -0.000001 -0.000000 -0.000000 1.722982 -4.336139 -6.313390 40.356941 -21.566584 -48.246192 0.000310 -80.698139 0.000323 -22.681011 18.641572 23.142293 -2.660807 -2.943973 -29.720742 1.683998 4.516193 -40.882254 0.717203 3.064687 -26.336923 0.000001 -0.000000 0.000001 10.468186 7.147582 9.921596 -8.969342 17.057574 -9.772689 13.034196 26.908770 2.767804 -0.000001 -0.000001 0.000000 9.601973 28.515717 2.078957 8.715570 49.787547 23.528876 -0.000159 79.873216 0.000152 -64.226434 -13.086575 -1.707253 12.368840 -4.624736 21.260480 17.294816 -25.325406 -0.358852 11.165245 -70.172619 -5.514504 0.000003 -0.000000 -0.000000 5.274451 -6.773189 70.945120 4.981899 -6.665507 73.522615 3.118674 -5.801950 56.488936 0.000003 0.000000 0.000001 -53.614034 -16.023936 1.247996 47.704579 -3.088376 -0.407511 3.545676 1.061633 -12.064383 0.000004 0.000001 -0.000004 -0.000000 -0.000000 0.000000 -2.835909 -25.080089 -11.985450 58.360702 -12.673155 -5.177922 -42.465161 -10.962880 16.142047 -16.995999 -0.000026 -0.000004 -0.000000 -0.000002 -0.000001 
-5.711639 72.769218 6.674291 1.093927 -5.618552 -1.672498 5.946132 16.805520 2.888612 7.435341 15.873428 2.178121 7.360969 15.880332 2.320891 4.393800 -5.341490 2.321958 -15.350382 -25.154595 -2.487026 -0.000002 0.000001 0.000000 2.127074 -6.443458 -4.901050 38.293042 -18.844167 -47.029790 0.000183 -81.740535 0.000186 -28.697135 16.216531 24.522175 -2.660807 -2.943972 -29.720742 1.683999 4.516193 -40.882258 0.717205 3.064688 -26.336912 0.000000 -0.000000 0.000003 10.468187 7.147582 9.921587 -8.969342 17.057578 -9.772694 13.034200 26.908765 2.767798 -0.000000 0.000002 -0.000000 9.181703 27.825830 1.138846 8.274201 42.638491 26.702833 -0.000299 82.571017 0.000297 -56.879415 -12.518952 -1.734419 12.368835 -4.624743 21.260485 17.294814 -25.325407 -0.358855 11.165247 -70.172619 -5.514506 -0.000001 0.000001 0.000001 5.274448 -6.773192 70.945113 4.981898 -6.665506 73.522615 3.118673 -5.801949 56.488936 0.000001 -0.000000 0.000005 -51.398755 -15.324670 5.532129 48.318244 -0.565879 -0.469448 2.296870 1.176535 -13.090463 0.000004 0.000001 -0.000004 0.000000 0.000000 0.000000 -8.082243 -23.035240 -14.834826 61.235911 -12.035379 -5.227823 -40.557523 -7.569692 15.840768 -18.466296 -0.000019 -0.000006 0.000000 -0.000001 -0.000001 
